<?xml version="1.0" encoding="utf-8"?><svg viewBox="0 0 106 64" xmlns="http://www.w3.org/2000/svg" xmlns:xlink="http://www.w3.org/1999/xlink"><style>:root>svg{display:none}:root>svg:target{display:block}</style><svg viewBox="0 0 10 8" id="check" xmlns="http://www.w3.org/2000/svg"><path d="M1 4.667 3.24 7 9 1"/></svg><svg viewBox="0 0 12 16" id="comparison" xmlns="http://www.w3.org/2000/svg"><path fill-rule="evenodd" clip-rule="evenodd" d="M6 0a1 1 0 0 1 1 1v14a1 1 0 1 1-2 0V1a1 1 0 0 1 1-1ZM1 7a1 1 0 0 1 1 1v7a1 1 0 1 1-2 0V8a1 1 0 0 1 1-1Zm11-1a1 1 0 1 0-2 0v9a1 1 0 1 0 2 0V6Z"/></svg><svg viewBox="0 0 106 64" id="logo" xmlns="http://www.w3.org/2000/svg"><g clip-path="url(#ca)"><path d="M7.756 57.22 3.78 49.84H0V63.8h3.58v-7.778l2.784 4.986h2.784l2.785-4.986V63.8h3.58V49.84h-3.78l-3.976 7.38Zm19.689-7.578h-4.972c-1.392 0-2.403.315-3.033.947-.63.631-.944 1.645-.944 3.041v6.382c0 1.396.314 2.41.944 3.04.63.632 1.641.948 3.033.948h4.972c1.392 0 2.403-.316 3.033-.947.63-.632.945-1.645.945-3.041V53.63c0-1.396-.315-2.41-.945-3.041-.63-.632-1.64-.947-3.033-.947Zm.398 10.37c0 .797-.398 1.196-1.194 1.196h-3.38c-.796 0-1.194-.399-1.194-1.196V53.63c0-.798.398-1.197 1.194-1.197h3.38c.796 0 1.194.4 1.194 1.197v6.382Zm15.114-4.687h-4.971v-5.484h-3.58v13.96h3.58v-5.684h4.971v5.684h3.58V49.84h-3.58v5.484Zm6.961 8.476h11.038v-2.792h-7.458v-2.892h5.867v-2.792h-5.867v-2.692h7.458v-2.792H49.918v13.96Zm25.208-6.303a2.628 2.628 0 0 0-.765-.698 3.582 3.582 0 0 0-.876-.38c.504-.199.928-.548 1.273-1.046.346-.499.517-1.147.517-1.945 0-1.209-.305-2.11-.914-2.702-.61-.591-1.565-.887-2.865-.887h-7.955V63.8h8.552c1.3 0 2.254-.307 2.864-.917.61-.611.915-1.57.915-2.873 0-.545-.07-1.027-.209-1.445a3.754 3.754 0 0 0-.537-1.067Zm-8.005-4.865h3.38c.796 0 1.194.399 1.194 1.197v.398c0 .798-.398 1.197-1.193 1.197H67.12v-2.792Zm5.17 7.18c0 .797-.397 1.196-1.192 1.196H67.12v-2.792h3.978c.795 0 1.193.399 1.193 1.196v.4Zm10.243-9.972-5.27 13.96h3.878l.895-2.493h4.972l.895 2.493h3.878l-5.27-13.96h-3.978Zm.398 8.874 1.59-4.686 1.592 4.686h-3.182Zm19.19-1.994 1.889-3.59c.08-.146.199-.282.358-.408a.843.843 0 0 1 .537-.19h.796v-2.692c-.173-.026-.358-.06-.557-.1a9.67 9.67 0 0 0-.577-.069 7.213 7.213 0 0 0-.656-.03c-.703 0-1.269.175-1.7.529a4.299 4.299 0 0 0-1.084 1.365l-1.99 3.79h-1.79V49.84H93.77V63.8h3.58v-5.684h1.79l3.082 5.684H106l-3.878-7.08ZM79.806 31V6.81s.172-3.141-1.241-4.56c-1.413-1.422-4.522-1.218-4.522-1.218H32.569s-3.52-.085-5.05 1.522c-1.485 1.56-1.455 4.794-1.455 4.794v23.248s-.164 3.305 1.454 4.863c1.664 1.6 5.113 1.454 5.113 1.454h41.143s3.233.229 4.762-1.273c1.487-1.455 1.27-4.64 1.27-4.64Z"/><path d="M76.612 3.935c-.714-.679-1.98-.916-1.98-.916h-9.134S51.084 27.586 49.665 29.275c-4.491 5.353-10.504 5.496-10.504 5.496h35.777s1.185-.236 1.827-.916c.653-.692.761-1.832.761-1.832V5.767s-.182-1.137-.914-1.832Z"/><path d="M60.959.013C58.041-.17 54.694 1.64 54.694 1.64L37.057 17.93s10.903-3.01 12.299 4.887c1.93 10.904-11.37 12.028-11.37 12.028s5.9.594 10.906-4.116c4.566-4.297 16.94-27.69 16.94-27.69S63.596.179 60.96.014Z"/></g><defs><clipPath id="ca"><path d="M0 0h106v64H0z"/></clipPath></defs></svg><svg viewBox="0 0 36 40" id="marker" xmlns="http://www.w3.org/2000/svg"><circle cx="18" cy="18" r="18"/><path d="M18.448 40 11 29.697h14.897L18.448 40Z"/><circle cx="18" cy="18" r="10"/></svg><svg viewBox="0 0 18 19" id="search" xmlns="http://www.w3.org/2000/svg"><path fill-rule="evenodd" clip-rule="evenodd" d="M3 8.5a6.5 6.5 0 1 1 13 0 6.5 6.5 0 0 1-13 0ZM9.5 0a8.5 8.5 0 0 0-6.381 14.115.999.999 0 0 0-.24.178L.293 16.879a1 1 0 1 0 1.414 1.414l2.586-2.586a.997.997 0 0 0 .217-.325A8.5 8.5 0 1 0 9.5 0Z"/></svg></svg>